<?xml version="1.0" encoding="UTF-8" standalone="no"?>
<!-- Created with Inkscape (http://www.inkscape.org/) -->

<svg
   width="21"
   height="20"
   viewBox="0 0 5.5562498 5.2916667"
   version="1.1"
   id="svg5"
   xml:space="preserve"
   inkscape:export-filename="06.png"
   inkscape:export-xdpi="96"
   inkscape:export-ydpi="96"
   inkscape:version="1.2.2 (b0a8486541, 2022-12-01)"
   sodipodi:docname="multi_cof.svg"
   xmlns:inkscape="http://www.inkscape.org/namespaces/inkscape"
   xmlns:sodipodi="http://sodipodi.sourceforge.net/DTD/sodipodi-0.dtd"
   xmlns="http://www.w3.org/2000/svg"
   xmlns:svg="http://www.w3.org/2000/svg"><sodipodi:namedview
     id="namedview7"
     pagecolor="#013e3d"
     bordercolor="#eeeeee"
     borderopacity="1"
     inkscape:showpageshadow="0"
     inkscape:pageopacity="1"
     inkscape:pagecheckerboard="0"
     inkscape:deskcolor="#505050"
     inkscape:document-units="mm"
     showgrid="false"
     inkscape:zoom="0.66567176"
     inkscape:cx="243.36319"
     inkscape:cy="317.72416"
     inkscape:window-width="1920"
     inkscape:window-height="1122"
     inkscape:window-x="0"
     inkscape:window-y="0"
     inkscape:window-maximized="1"
     inkscape:current-layer="layer1" /><defs
     id="defs2" /><g
     inkscape:label="Layer 1"
     inkscape:groupmode="layer"
     id="layer1"><g
       id="g469"
       style="fill:#00ffff;fill-opacity:1"
       transform="matrix(0.60529334,0,0,0.60529334,154.2951,-16.885061)"
       inkscape:export-filename="multi_cof.png"
       inkscape:export-xdpi="96"
       inkscape:export-ydpi="96"><path
         style="fill:#00ffff;fill-opacity:1;stroke-width:0.264583"
         d="m -138.27155,186.08603 c -0.57536,-1.89315 -0.62217,-2.75646 -0.5889,-10.86233 0.034,-8.29598 0.0272,-8.41099 -0.48677,-8.13594 -0.89029,0.47647 -0.90569,0.31338 -0.0612,-0.6484 0.63312,-0.72108 0.7813,-1.09227 0.66606,-1.66847 -0.22347,-1.11736 0.43407,-1.55466 1.4422,-0.95914 0.6633,0.39182 0.95021,0.41419 1.98152,0.1545 4.13978,-1.04241 4.8728,0.33474 2.711,5.09316 -0.38989,0.8582 -0.61333,1.64261 -0.49654,1.74313 0.11679,0.10052 0.92673,0.72294 1.79985,1.38315 1.78341,1.34852 2.96033,2.47027 3.34409,3.18734 0.20598,0.38486 0.0781,0.66301 -0.63075,1.37186 -1.13675,1.13674 -3.12469,1.73437 -5.76919,1.73437 -2.03376,0 -2.03376,0 -2.07938,2.13719 -0.0666,3.11732 -0.75605,6.32948 -1.35864,6.32948 -0.11658,0 -0.32957,-0.38695 -0.47331,-0.8599 z m 6.28219,-11.16647 c 0.89828,-0.46452 0.89828,-0.46452 -0.002,-1.1627 -2.3255,-1.80322 -2.68284,-2.26494 -2.81466,-3.63678 -0.0974,-1.0142 0.0265,-1.67603 0.54206,-2.894 0.36762,-0.86851 0.55554,-1.6199 0.4176,-1.66976 -0.13794,-0.0499 -0.81302,0.18826 -1.50018,0.52916 -1.24938,0.61982 -1.24938,0.61982 -1.33623,2.33962 -0.0478,0.94588 -0.005,2.95528 0.0939,4.46533 0.18074,2.74555 0.18074,2.74555 1.94104,2.6196 0.96817,-0.0693 2.16453,-0.33498 2.65859,-0.59047 z m 39.914633,10.37272 c -0.411658,-0.31906 -2.849433,-3.77323 -2.849433,-4.03746 0,-0.34387 1.598681,-0.0577 2.798225,0.50081 1.733158,0.80704 2.523845,2.18714 1.845866,3.22187 -0.46431,0.70862 -1.134793,0.82623 -1.794658,0.31478 z m -28.150553,-0.27396 c -2.26289,-1.29261 -3.02097,-4.09049 -1.95096,-7.20052 0.29104,-0.84592 0.52916,-2.12831 0.52916,-2.84975 0,-1.19931 -0.0907,-1.39118 -1.05833,-2.23939 -0.58208,-0.51023 -1.05833,-1.09195 -1.05833,-1.29271 0,-0.52519 2.00969,-0.49625 2.21234,0.0319 0.0838,0.21829 0.31387,0.39688 0.51136,0.39688 0.19748,0 0.62442,0.28247 0.94876,0.62771 0.5897,0.62771 0.5897,0.62771 -0.0858,2.97656 -1.4907,5.18382 -0.9106,6.13614 1.64893,2.70695 2.13326,-2.85808 2.76258,-3.99304 2.53824,-4.57767 -0.11601,-0.3023 -0.044,-0.37216 0.26251,-0.25455 0.39635,0.1521 6.51569,-1.15025 6.51569,-1.38671 0,-0.0601 -0.16601,-0.50662 -0.36892,-0.99225 -0.47382,-1.134 -1.3584,-1.74482 -2.53422,-1.74992 -1.51069,-0.007 -1.75962,-0.36965 -0.61227,-0.89305 0.55103,-0.25137 1.65672,-1.04399 2.45708,-1.76139 1.45521,-1.30436 1.45521,-1.30436 0.82442,-1.79823 -0.63078,-0.49387 -0.63078,-0.49387 0.23792,-0.7967 2.45298,-0.85511 5.34478,0.23147 4.93726,1.85515 -0.1668,0.66459 -2.20898,1.77754 -4.77448,2.60201 -1.08073,0.3473 -0.91273,0.78404 0.30473,0.79221 1.26872,0.009 2.43842,0.72923 2.61479,1.61113 0.16736,0.83676 0.16736,0.83676 2.7929,0.65062 2.52937,-0.17933 2.66321,-0.16122 3.653538,0.49414 2.490557,1.64817 1.858791,2.48205 -1.549328,2.04497 -1.28189,-0.16439 -2.8882,-0.2989 -3.56956,-0.2989 -1.18563,0 -1.23886,0.0324 -1.23886,0.75406 0,1.63007 -2.57843,4.00585 -5.38567,4.96237 -1.4401,0.49069 -1.44628,0.50278 -0.50894,0.99391 0.69224,0.3627 0.7706,0.33172 2.03395,-0.80414 1.68074,-1.51113 2.43108,-1.88851 4.69248,-2.36002 2.03927,-0.4252 3.54264,-0.18017 4.34686,0.70849 0.39593,0.4375 0.3072,0.61133 -1.3095,2.56547 -1.73421,2.09618 -1.73421,2.09618 -1.0819,2.66336 0.35877,0.31194 0.65231,0.80608 0.65231,1.09809 0,1.07672 -4.32762,0.41957 -5.75469,-0.87385 -0.86716,-0.78595 -0.76036,-1.01923 0.92604,-2.02274 2.41989,-1.43999 2.68109,-2.30527 0.59531,-1.97207 -2.3087,0.36882 -3.02617,1.18178 -2.87619,3.25899 0.10154,1.40643 -0.50245,2.10926 -1.44397,1.68027 -0.86427,-0.39379 -3.88192,-4.17819 -3.88192,-4.86828 0,-0.12521 0.43524,-0.22766 0.96721,-0.22766 1.54317,0 3.25862,-1.56135 4.20561,-3.82783 0.39615,-0.94811 0.39615,-0.94811 -1.67485,-0.7754 -1.64605,0.13728 -2.24184,0.0844 -2.90363,-0.25786 -1.10775,-0.57284 -1.12351,-0.56647 -1.12351,0.45405 0,0.91597 -0.59856,2.87191 -1.5106,4.93621 -0.28932,0.65484 -0.931,2.17134 -1.42595,3.36998 -0.49495,1.19865 -0.95944,2.1767 -1.0322,2.17344 -0.0728,-0.003 -0.38545,-0.15053 -0.69486,-0.32728 z m -47.37667,-0.14928 c -1.3209,-0.39266 -2.87824,-1.81481 -3.72309,-3.3999 -0.47159,-0.88481 -0.85745,-1.77968 -0.85745,-1.9886 0,-0.80906 2.01279,-2.13182 3.73576,-2.45505 0.93264,-0.17496 0.94137,-0.18935 1.22443,-2.01811 0.45362,-2.9306 1.51857,-3.93645 4.16775,-3.93645 0.82255,0 1.25537,-0.12496 1.35786,-0.39203 0.30683,-0.79959 2.74337,1.11173 2.74337,2.15201 0,1.35687 -2.25787,1.37415 -3.73109,0.0286 -0.79417,-0.72537 -1.87649,-1.03167 -2.26667,-0.64149 -0.22907,0.22907 -0.59208,2.27829 -0.6053,3.417 -0.01,0.81788 0.0809,0.99219 0.5148,0.99219 0.75436,0 3.14814,0.94944 3.7367,1.48208 0.90994,0.82348 0.64059,1.37769 -0.75729,1.5582 -0.69123,0.0893 -1.4949,0.21087 -1.78594,0.27023 -0.48022,0.0979 -0.473,0.0651 0.0781,-0.35464 0.76188,-0.58039 0.51856,-0.8392 -0.78896,-0.8392 -1.01957,0 -1.01957,0 -0.84516,2.48126 0.2679,3.81119 -0.0214,4.29087 -2.19778,3.64393 z m 0.18196,-4.7038 c 0,-1.48903 0,-1.48903 -1.12448,-1.30937 -1.47815,0.23615 -1.73896,0.52943 -1.10499,1.24252 0.42019,0.47264 1.92089,1.55126 2.16333,1.55488 0.0364,5.6e-4 0.0661,-0.66907 0.0661,-1.48803 z m -31.59524,1.6536 c 1.94026,-1.817 3.02024,-4.11738 3.02024,-6.43314 0,-1.21742 0,-1.21742 -1.93564,-1.0538 -1.06461,0.09 -2.74329,0.35093 -3.7304,0.57986 -2.01715,0.4678 -2.90087,0.30355 -4.23458,-0.78706 -0.97713,-0.79903 -1.42215,-0.69892 6.59333,-1.48327 1.74625,-0.17088 3.27546,-0.40291 3.39825,-0.51562 0.12279,-0.11271 -0.026,-0.76849 -0.33073,-1.45728 -0.68202,-1.54184 -0.6894,-1.44968 0.11598,-1.44968 1.71552,0 3.03421,1.08484 3.03421,2.49614 0,0.65072 0.0636,0.67886 1.53458,0.67886 0.84402,0 1.65977,-0.12518 1.81276,-0.27818 0.63857,-0.63857 4.12265,1.38833 3.66349,2.13127 -0.1932,0.31261 -2.83421,0.23411 -5.88635,-0.17496 -1.12448,-0.15072 -1.12448,-0.15072 -1.12448,0.75734 0,1.94494 -1.58861,5.76102 -2.8877,6.93668 -0.28778,0.26043 -1.47934,0.74331 -2.64793,1.07307 -2.1247,0.59956 -2.1247,0.59956 -0.39503,-1.02023 z m -24.6052,0.0797 c -0.7903,-0.93923 -0.79239,-0.9836 -0.43615,-9.24012 0.18079,-4.1902 0.15348,-5.32697 -0.1454,-6.05158 -0.2024,-0.49072 -0.36801,-0.99673 -0.36801,-1.12448 0,-0.36476 1.21221,-0.27229 2.33857,0.17839 1.62876,0.6517 1.74838,1.1136 1.2723,4.91274 -0.60945,4.86347 -0.78056,8.17035 -0.42276,8.17035 0.68542,0 5.76736,-2.84485 6.83752,-3.82762 1.04606,-0.96062 1.14238,-1.00113 0.96472,-0.40572 -0.61759,2.06971 -2.21417,3.82625 -5.3018,5.83296 -0.87313,0.56746 -1.99363,1.33266 -2.49001,1.70044 -1.15894,0.85869 -1.41822,0.84193 -2.24898,-0.14536 z m -29.97934,-2.56847 c -1.88071,-1.74963 -4.04313,-4.21859 -4.04313,-4.61628 0,-0.37766 1.57321,-0.20656 2.96573,0.32256 1.3839,0.52584 1.3839,0.52584 2.45023,-0.17614 1.14823,-0.7559 4.10904,-3.69867 4.10904,-4.08401 0,-0.57969 -6.32085,-0.11951 -9.92709,0.72272 -1.8573,0.43377 -1.8573,0.43377 -3.83646,-0.56856 -1.82624,-0.92489 -1.92587,-1.01696 -1.28951,-1.19161 1.39393,-0.38255 7.89478,-1.0784 12.01035,-1.28559 4.67931,-0.23557 5.46252,-0.0734 7.12403,1.47483 0.77403,0.72128 0.77403,0.72128 -1.05833,2.40756 -1.0078,0.92745 -2.85275,2.37199 -4.09987,3.21009 -2.26751,1.52382 -2.26751,1.52382 -1.65365,2.41969 0.71176,1.03874 0.79198,2.15009 0.19809,2.74398 -0.64443,0.64443 -0.90524,0.52246 -2.94943,-1.37924 z m 106.94957,1.09079 c -1.30756,-0.68933 -1.9445,-1.42044 -2.38015,-2.73206 -0.36111,-1.0872 -0.33629,-2.11996 0.051,-2.11996 0.0702,0 0.3488,0.26789 0.61902,0.59531 0.49131,0.59531 0.49131,0.59531 1.36533,0.0841 3.0464,-1.78198 4.34329,-2.09774 5.44535,-1.32583 0.74768,0.5237 0.73408,0.74812 -0.14529,2.39656 -0.9422,1.76624 -1.6859,2.66115 -2.61354,3.14497 -0.94185,0.49122 -1.34219,0.48386 -2.34167,-0.0431 z m 1.73719,-2.2155 c 0.56952,-0.3048 0.70297,-1.31361 0.17377,-1.31361 -0.53021,0 -1.51408,0.78344 -1.51408,1.20563 0,0.44713 0.61416,0.4966 1.34031,0.10798 z m -90.10802,1.59681 c 0.0899,-0.14552 0.32942,-0.26458 0.53218,-0.26458 0.63801,0 3.01764,-2.61693 3.80546,-4.18494 1.27082,-2.52936 1.73205,-5.79333 0.96244,-6.81085 -0.62022,-0.82001 -0.47811,-0.98991 0.69628,-0.83239 2.44589,0.32807 3.08883,1.83865 2.19413,5.15508 -0.85628,3.17402 -3.2096,5.92049 -5.86543,6.84532 -1.19309,0.41547 -2.55827,0.4697 -2.32506,0.0924 z m 57.65392,-3.83785 c -0.51061,-0.7793 -0.6478,-0.54136 2.37122,-4.11286 2.26681,-2.68166 2.24494,-2.48556 0.39203,-3.51461 -1.1697,-0.64962 -0.52569,-1.05745 1.04163,-0.65962 1.52901,0.3881 1.76186,0.23291 2.82854,-1.88524 0.96488,-1.916 1.14858,-2.71489 0.80851,-3.51624 -0.29466,-0.69434 0.48759,-0.85752 1.43316,-0.29896 0.68642,0.40548 0.80806,0.63697 0.8115,1.54441 0.005,1.24442 0.10382,1.42023 1.25272,2.22267 0.47294,0.33032 0.8599,0.83322 0.8599,1.11756 0,0.59636 -1.96543,1.94689 -3.50447,2.40806 -0.7455,0.22339 -1.39918,0.79451 -2.63929,2.30595 -2.33891,2.85067 -4.46107,5.05173 -4.87063,5.05173 -0.19277,0 -0.54594,-0.29828 -0.78482,-0.66285 z m 9.40858,-10.14723 c -0.009,-0.6993 -0.009,-0.6993 -0.3875,-0.0378 -0.48935,0.85604 -0.48935,1.07722 0,0.88943 0.21828,-0.0838 0.39266,-0.46698 0.3875,-0.85159 z m 16.00109,8.57893 c -0.73762,-0.54441 -0.32409,-0.78633 2.26361,-1.32419 2.42084,-0.50319 3.21607,-0.8369 4.96186,-2.08224 1.76196,-1.25686 1.38404,-1.79662 -0.40618,-0.58013 -0.53538,0.3638 -1.17589,0.66146 -1.42334,0.66146 -0.67144,0 -0.86607,-0.97433 -0.3515,-1.75965 0.42646,-0.65086 0.41763,-0.7014 -0.24264,-1.39058 -0.91382,-0.95382 -0.87065,-1.05763 0.37061,-0.89114 0.58069,0.0779 1.20577,0.0196 1.38906,-0.12957 0.54405,-0.44271 2.16836,0.21512 2.26843,0.91869 0.0461,0.32408 0.48788,0.83438 0.99219,1.14606 1.02391,0.63281 1.09895,0.92363 0.47001,1.82157 -0.4118,0.58793 -0.40946,0.64852 0.0375,0.97537 0.26213,0.19168 0.60854,0.39744 0.7698,0.45726 1.02217,0.37915 -2.91372,1.73234 -5.13074,1.764 -0.65484,0.009 -1.96453,0.18722 -2.91041,0.39528 -2.17713,0.47888 -2.43158,0.48036 -3.05829,0.0178 z m 32.63588,-5.33091 c 1.0493,-0.95767 1.90782,-1.86327 1.90782,-2.01244 0,-0.14918 -0.35465,-0.71901 -0.78812,-1.2663 -0.78811,-0.99507 -0.78811,-0.99507 0.43381,-1.16255 1.9178,-0.26287 2.1299,-0.21847 3.12322,0.65368 1.16337,1.02144 1.25584,1.98046 0.22862,2.37101 -0.38865,0.14777 -1.28528,0.69343 -1.99252,1.21259 -1.29158,0.94811 -3.53209,1.94524 -4.37087,1.94524 -0.2756,0 0.28902,-0.67428 1.45804,-1.74123 z m -80.21388,-0.75794 c 2.892,-1.44681 3.59933,-2.35061 2.46269,-3.14675 -0.66045,-0.46259 -0.48131,-0.59954 1.07776,-0.8239 1.58939,-0.22872 3.57188,0.70605 3.57188,1.68419 0,1.22239 -4.8711,3.19813 -7.88489,3.19813 -1.04975,0 -1.04975,0 0.77256,-0.91167 z m 55.13293,-2.74495 c -0.21896,-0.0989 -1.02103,-0.65054 -1.78235,-1.22584 -1.38423,-1.04599 -1.38423,-1.04599 -0.0508,-1.38724 1.19836,-0.30669 1.43253,-0.29038 2.31152,0.16091 0.90973,0.46708 1.90413,1.70963 1.90413,2.3793 0,0.31437 -1.73068,0.36731 -2.38251,0.0729 z"
         id="path310"
         sodipodi:nodetypes="scssssssssssscssssscsssscssssscsssssssssssssssscsssssscssssssssssssssssssssssscssscsssssssssssscsssscssssssssssssssssscssssssssssssssssssssssssssssssssssssssssscssssssssssssssssssssssssscssssssscssscssssssscssssscsccssssssssssssssssssssss" /><path
         style="fill:#00ffff;fill-opacity:1;stroke-width:0.264583"
         d="m -41.230576,186.19055 c -0.43452,-0.18829 -1.22285,-0.80252 -1.75183,-1.36496 -1.54476,-1.64246 -4.17461,-5.40484 -4.03401,-5.77123 0.19968,-0.52037 1.1134,-0.91599 3.27601,-1.41843 1.98437,-0.46105 1.98437,-0.46105 1.98449,-1.38034 7e-5,-0.51012 0.2829,-1.37426 0.63546,-1.94151 0.63533,-1.02223 0.63533,-1.02223 -0.43682,-0.84109 -0.83867,0.14169 -1.32275,0.0523 -2.22295,-0.41064 -1.15081,-0.59177 -1.15081,-0.59177 1.09815,-1.21232 3.31311,-0.91416 4.04031,-0.99276 4.92975,-0.53281 0.74743,0.38651 0.82254,0.3678 2.02428,-0.5043 0.68643,-0.49815 1.24805,-1.00814 1.24805,-1.13332 0,-0.5614 -5.16148,-0.4817 -9.26041,0.14299 -0.65485,0.0998 -1.56965,0.19215 -2.03291,0.20523 -1.18201,0.0334 -2.20043,1.05018 -2.20043,2.197 0,2.077 -1.3133,2.59194 -2.5328,0.99308 -0.7486,-0.98146 -0.74876,-0.99924 -0.0328,-3.63529 0.44258,-1.62943 0.74821,-1.93497 1.47901,-1.47858 0.30983,0.19349 0.62954,0.56045 0.71048,0.81547 0.20906,0.65869 0.32063,0.64402 6.72609,-0.88448 2.8566,-0.68165 5.29167,-2.33013 5.29167,-3.58231 0,-0.83641 -1.51883,-0.39175 -2.38125,0.69714 -0.46102,0.58208 -1.054,1.05833 -1.31774,1.05833 -0.91856,0 -2.65101,-2.43196 -2.65101,-3.72139 0,-0.89076 1.27125,-0.48528 2.84631,0.90785 0.57235,0.50625 0.63639,0.50974 1.53033,0.0834 1.14022,-0.54374 1.89686,-0.56042 3.0758,-0.0678 0.91053,0.38044 2.33714,1.62243 2.33714,2.03468 0,0.12261 -0.8024,0.76122 -1.78311,1.41913 -1.21376,0.81424 -1.61505,1.20323 -1.25677,1.21824 0.28949,0.0121 0.824,0.0608 1.1878,0.10826 0.3638,0.0474 1.19724,0.11593 1.85208,0.15225 2.0718,0.11493 4.10747,1.42623 3.44788,2.22099 -0.45004,0.54226 -2.72377,1.35102 -5.1921,1.8468 -1.68792,0.33903 -2.19449,0.55674 -2.6214,1.12659 -0.29104,0.38849 -0.92291,1.15275 -1.40415,1.69836 -0.84124,0.95377 -0.85466,1.00289 -0.34812,1.27399 0.28977,0.15508 1.21929,0.28263 2.0656,0.28344 2.74001,0.003 4.53557,0.81719 3.78771,1.71831 -0.2413,0.29075 -0.88162,0.39688 -2.39453,0.39688 -2.06515,0 -2.06515,0 -1.91779,1.42785 0.1715,1.66167 -0.34454,3.46077 -1.3833,4.82266 -0.9397,1.232 -1.4275,1.44368 -2.37788,1.03186 z m 0.42094,-4.08702 c 0.79163,-0.79163 1.11308,-2.6896 0.51784,-3.05748 -0.22551,-0.13937 -4.98986,0.61984 -5.28261,0.8418 -0.18409,0.13958 1.63019,1.95084 2.49546,2.4913 1.06694,0.66644 1.36323,0.63046 2.26931,-0.27562 z m 47.0754799,3.41923 c -0.32948,-0.32947 -0.52917,-0.88194 -0.52917,-1.464 0,-0.97354 1.14795,-3.56308 1.57952,-3.56308 0.36042,0 0.79855,1.784 0.80025,3.25854 0.002,2.15027 -0.74987,2.86927 -1.8506,1.76854 z m 14.2875001,0 c -0.73768,-0.73768 -0.67211,-2.07808 0.18741,-3.83059 0.39411,-0.80359 0.79198,-1.46107 0.88416,-1.46107 0.31449,0 0.78051,2.04288 0.78051,3.42152 0,2.25133 -0.73188,2.99034 -1.85208,1.87014 z m -30.2947901,-0.29862 c -0.4365699,-0.13923 -1.9778199,-0.21829 -3.4250199,-0.1757 -2.63126,0.0774 -2.63126,0.0774 -3.26268,-0.84859 -0.49325,-0.7234 -0.59476,-1.12869 -0.4639,-1.85209 0.0921,-0.50932 0.27954,-1.74867 0.41645,-2.75411 0.27157,-1.99437 0.38375,-2.24791 0.8072,-1.82446 0.19821,0.19821 0.64496,0.17114 1.51695,-0.0919 0.6798,-0.20508 2.06943,-0.44312 3.08808,-0.52897 3.0320099,-0.25554 3.5142399,0.59767 3.5582899,6.29563 0.0166,2.14207 -0.30293,2.3965 -2.23537,1.78021 z m -0.3739399,-1.96451 c 0.3094499,-0.19126 0.3179099,-1.9702 0.009,-1.9702 -0.12775,0 -0.63376,0.16503 -1.12448,0.36673 -0.49071,0.2017 -1.30892,0.44555 -1.81825,0.54187 -0.92604,0.17515 -0.92604,0.17515 -0.27564,-0.3876 0.6504,-0.56274 0.6504,-0.56274 -0.25795,-0.47573 -0.83458,0.0799 -0.91211,0.16224 -0.95449,1.01306 -0.0254,0.50933 0.0184,1.03138 0.0972,1.16012 0.14596,0.23845 3.88402,0.0238 4.32428,-0.24825 z m -2.53648,-3.53819 c 0.43656,-0.10035 1.14613,-0.0874 1.57683,0.0288 1.02598,0.27672 1.3883299,-0.0888 0.9789,-0.98737 -0.33969,-0.74553 -0.28547,-0.7442 -3.28334,-0.0802 -0.96073,0.21279 -1.25677,0.39679 -1.25677,0.78114 0,0.53707 0.49144,0.60089 1.98438,0.2577 z m -53.975,3.28895 c -2.04694,-0.45599 -3.07951,-0.9948 -4.07141,-2.12451 -1.05871,-1.2058 -1.49808,-2.82986 -1.11316,-4.11461 0.39194,-1.30817 0.39672,-1.29292 -0.50397,-1.6069 -1.03777,-0.36177 -1.00232,-0.64444 0.13229,-1.05472 0.65788,-0.23789 0.92604,-0.49569 0.92604,-0.89025 0,-0.87483 0.45613,-1.17199 1.30638,-0.85106 0.5595,0.21119 0.97846,0.17957 1.76421,-0.13315 0.99244,-0.39498 1.03766,-0.46735 1.22595,-1.96179 0.2483,-1.97089 0.004,-4.33198 -0.50663,-4.90442 -0.35505,-0.39771 -0.327,-0.4868 0.2781,-0.88328 0.85912,-0.56292 2.00581,-0.33362 2.92415,0.58472 0.79743,0.79742 0.82599,1.22348 0.25234,3.76369 -0.23563,1.0434 -0.36516,1.96036 -0.28783,2.03768 0.0773,0.0773 0.80118,-0.0676 1.60857,-0.32215 1.73333,-0.54639 3.10418,-0.27908 4.12134,0.80362 0.60547,0.64451 0.60788,0.66899 0.13634,1.38864 -0.74751,1.14085 -3.32169,3.50824 -4.44628,4.08909 -0.78395,0.40492 -1.17993,0.46768 -1.73337,0.27475 -0.6349,-0.22133 -0.76752,-0.16255 -1.15444,0.51161 -0.5913,1.03028 -1.2214,0.95899 -2.6517,-0.30001 -1.20612,-1.06167 -1.20612,-1.06167 -1.38355,-0.25383 -0.48605,2.21297 2.42741,3.68378 7.3145,3.69262 2.70486,0.005 3.37354,-0.36197 3.63924,-1.99663 0.23329,-1.43521 0.73303,-1.33031 1.94811,0.40892 2.09454,2.99807 0.49006,4.22662 -5.49189,4.20512 -1.45521,-0.005 -3.36021,-0.16865 -4.23333,-0.36315 z m -1.09281,-7.60794 c 0.28386,-1.05921 0.21275,-1.30171 -0.29625,-1.01036 -1.18554,0.6786 -1.22138,0.72913 -0.83029,1.17079 0.52219,0.58971 0.94152,0.52999 1.12654,-0.16043 z m 4.73153,-2.00691 c 1.07656,-1.33775 0.97592,-1.57707 -0.46345,-1.10203 -1.00547,0.33183 -1.35395,0.78954 -1.58059,2.07602 -0.13759,0.78097 -0.11297,0.81049 0.45282,0.54284 0.32908,-0.15569 1.04513,-0.83825 1.59122,-1.51683 z m -17.7298,8.29233 c -1.59118,-0.69154 -1.68649,-2.51511 -0.13145,-2.51511 0.36391,0 1.35105,-0.379 2.19365,-0.84222 1.25096,-0.68772 1.55346,-0.98841 1.64896,-1.63907 0.168,-1.14466 -0.0381,-1.6864 -0.70544,-1.85388 -0.60082,-0.15079 -2.54068,-1.92723 -2.54068,-2.32663 0,-0.12299 0.44648,-0.15321 0.99218,-0.0671 0.54571,0.0861 1.31961,0.0309 1.7198,-0.12262 0.6798,-0.26074 0.7276,-0.38146 0.7276,-1.83745 0,-1.15773 -0.13604,-1.73131 -0.52917,-2.23109 -0.68957,-0.87665 -0.65743,-1.2775 0.14951,-1.8651 0.75881,-0.55255 1.73682,-0.43596 2.73654,0.32624 0.61602,0.46967 0.62864,0.54808 0.38177,2.37186 -0.25532,1.88613 -0.25532,1.88613 0.66962,2.36613 1.2601,0.65393 1.2635,0.84484 0.0373,2.09575 -0.84214,0.85912 -1.06431,1.2834 -1.06431,2.03258 0,1.08013 0.0166,1.08862 1.0681,0.54489 0.76407,-0.39511 0.77312,-0.39175 0.53434,0.19844 -0.1336,0.3302 -0.30902,0.91215 -0.38982,1.29321 -0.1496,0.70546 -1.14589,1.47002 -4.55979,3.49923 -1.83865,1.09287 -1.77065,1.07964 -2.9387,0.57199 z m 88.3190199,-5.36223 c -0.007,-1.34763 0.16434,-3.55029 0.38025,-4.89479 0.34928,-2.17504 0.53061,-4.9676 0.41436,-6.38149 -0.0467,-0.56844 0.9611,-1.7516 1.49204,-1.7516 0.7385501,0 1.4426401,1.63477 1.3104801,3.04271 -0.31303,3.33485 -1.7948801,8.99575 -2.9215801,11.1609 -0.66323,1.27452 -0.66323,1.27452 -0.67555,-1.17573 z m 14.2982201,0 c -0.0127,-1.34763 0.15362,-3.55029 0.36953,-4.89479 0.34928,-2.17504 0.53061,-4.9676 0.41436,-6.38149 -0.0467,-0.56844 0.9611,-1.7516 1.49204,-1.7516 0.54786,0 1.40331,1.61381 1.4025,2.64584 -0.001,1.80427 -1.7655,8.8429 -2.72274,10.86353 -0.93265,1.96876 -0.93265,1.96876 -0.95569,-0.48149 z m -40.18063,1.08196 c -0.43241,-0.17375 -1.30494,-1.87635 -1.40147,-2.73477 -0.10429,-0.92729 0.28301,-2.9084 0.56858,-2.9084 0.1309,0 0.67017,0.8632 1.19838,1.91823 1.09287,2.18284 1.10333,2.19832 1.33107,1.97058 0.0925,-0.0925 -0.0385,-0.48348 -0.29104,-0.86892 -0.25255,-0.38543 -0.45918,-1.09275 -0.45918,-1.57182 0,-0.63323 -0.13724,-0.90691 -0.50271,-1.00249 -0.98547,-0.2577 -0.47994,-0.64108 0.88636,-0.67217 0.76398,-0.0174 2.94376,-0.2481 4.84395,-0.51271 4.1361899,-0.57598 6.1167799,-0.3119 7.5246999,1.00331 0.81112,0.7577 0.81314,0.76652 0.40541,1.7701 -0.22537,0.55473 -0.79111,1.33602 -1.25718,1.7362 -0.8313,0.71377 -0.91347,0.72761 -4.32081,0.72761 -3.1877399,0 -5.3247199,0.3146 -7.7913799,1.14705 -0.21828,0.0737 -0.54889,0.0729 -0.73468,-0.002 z m 4.4371,-3.09434 c -0.002,-0.82904 -0.002,-0.82904 -0.52742,-0.0353 -0.66171,0.99915 -0.66171,1.17575 0,1.00271 0.38768,-0.10138 0.5287,-0.36005 0.52742,-0.96742 z m 5.9752499,-0.0293 c 0.2362,-0.36048 0.4473,-1.04509 0.46912,-1.52135 0.0387,-0.84501 0.0109,-0.86784 -1.15096,-0.94494 -1.19062,-0.079 -1.19062,-0.079 -0.46302,0.60602 0.91633,0.86272 0.91291,0.90964 -0.12991,1.78098 -0.8622799,0.72049 -0.8622799,0.72049 -0.008,0.7276 0.62139,0.005 0.97069,-0.17128 1.28325,-0.64831 z m -2.7004099,-1.85182 c -0.12548,-0.32699 -0.35028,-0.39724 -0.86102,-0.26905 -0.87646,0.21998 -0.83372,0.11358 -0.48862,1.21615 0.29685,0.94841 0.29685,0.94841 0.90815,0.22192 0.3742,-0.4447 0.54544,-0.89813 0.44149,-1.16902 z m -4.19914,0.91975 c 0.66348,-0.43941 0.70691,-0.52644 0.26458,-0.53034 -0.29104,-0.003 -0.98944,-0.0807 -1.552,-0.17362 -1.02284,-0.16897 -1.02284,-0.16897 -0.39688,0.50414 0.77939,0.83808 0.72949,0.83217 1.6843,0.19982 z m -9.12812,-1.19344 c 0,-0.0364 0.80367,-0.68584 1.78593,-1.44326 0.98227,-0.75742 3.00993,-2.51131 4.50591,-3.89754 2.21206,-2.04976 2.66203,-2.59022 2.40969,-2.89427 -0.3511,-0.42306 -0.36401,-0.40612 0.63748,-0.83667 1.20923,-0.51986 0.63155,-0.78593 12.3568199,5.69133 1.55091001,0.85675 2.11667001,1.37548 2.11667001,1.94072 0,0.74107 -0.72109,0.8209 -3.23766001,0.35842 -2.12367,-0.39028 -2.32626,-0.47685 -1.96383,-0.83928 0.36242,-0.36242 0.0268,-0.63205 -3.2538,-2.61381 -2.0118399,-1.21534 -3.7646399,-2.2097 -3.8951099,-2.2097 -0.13046,0 -0.82804,0.60993 -1.55017,1.3554 -1.31297,1.35541 -1.31297,1.35541 -0.12235,1.18595 3.5841,-0.5101 4.8767799,-0.50316 5.5321999,0.0297 0.35317,0.28713 0.55466,0.65212 0.45185,0.81847 -0.229,0.37054 -1.71444,0.76736 -3.4748399,0.92829 -0.72999,0.0667 -1.78633,0.31315 -2.34742,0.54758 -1.27776,0.53389 -1.64459,0.54083 -1.21482,0.023 0.37851,-0.45608 0.39604,-0.43201 -0.63964,-0.87819 -0.69054,-0.29748 -0.83498,-0.2663 -1.45521,0.3142 -1.03313,0.96693 -2.58636,1.65514 -4.72347,2.09288 -1.05503,0.2161 -1.91823,0.36315 -1.91823,0.32678 z m -20.92281,-4.69984 c -1.29742,-0.87433 -2.77915,-3.30129 -2.30501,-3.77543 0.21076,-0.21076 2.9633,0.71499 3.71416,1.24916 0.93975,0.66855 1.17739,1.61616 0.61901,2.46835 -0.53379,0.81467 -0.89012,0.82485 -2.02816,0.0579 z"
         id="path359"
         sodipodi:nodetypes="sssssssssssssssssssssssssssssscsssssscsssssssssssssscssssssssssssssssscsssssssccccsssccssssssssscsssscssssssscsscsssssssssssssssssssssssssssssssscssssscsssscsscssssssssssssssccscssscsssscccsssssscsssssssssssssssssssssssssssssss" /></g><path
       sodipodi:type="star"
       style="fill:#ffff02;fill-opacity:1;stroke:none;stroke-width:2.028;stroke-linejoin:bevel;stroke-dasharray:none;stroke-opacity:1;paint-order:stroke fill markers"
       id="path6005"
       inkscape:flatsided="false"
       sodipodi:sides="5"
       sodipodi:cx="9.2365675"
       sodipodi:cy="20.627886"
       sodipodi:r1="2.8786886"
       sodipodi:r2="1.4168506"
       sodipodi:arg1="1.5707963"
       sodipodi:arg2="2.1991148"
       inkscape:rounded="0"
       inkscape:randomized="0"
       d="M 9.2365676,23.506574 8.4037637,21.774142 6.498772,21.51745 7.8890625,20.190055 7.5445167,18.298978 l 1.6920507,0.912057 1.6920506,-0.912057 -0.344546,1.891077 1.390291,1.327394 -1.904992,0.256693 z"
       inkscape:transform-center-y="-0.71824552"
       transform="matrix(0.81543708,0,0,-0.99801899,1.5007895,20.482956)"
       inkscape:export-filename="02.png"
       inkscape:export-xdpi="96"
       inkscape:export-ydpi="96" /><path
       sodipodi:type="star"
       style="fill:#ffff02;fill-opacity:1;stroke:none;stroke-width:2.028;stroke-linejoin:bevel;stroke-dasharray:none;stroke-opacity:1;paint-order:stroke fill markers"
       id="path6007"
       inkscape:flatsided="false"
       sodipodi:sides="5"
       sodipodi:cx="9.2365675"
       sodipodi:cy="20.627886"
       sodipodi:r1="2.8786886"
       sodipodi:r2="1.4168506"
       sodipodi:arg1="1.5707963"
       sodipodi:arg2="2.1991148"
       inkscape:rounded="0"
       inkscape:randomized="0"
       d="M 9.2365676,23.506574 8.4037637,21.774142 6.498772,21.51745 7.8890625,20.190055 7.5445167,18.298978 l 1.6920507,0.912057 1.6920506,-0.912057 -0.344546,1.891077 1.390291,1.327394 -1.904992,0.256693 z"
       inkscape:transform-center-y="-0.71824552"
       transform="matrix(0.6328084,0,0,-0.99801899,-2.6467905,33.678256)"
       inkscape:export-filename="03.png"
       inkscape:export-xdpi="96"
       inkscape:export-ydpi="96" /><path
       sodipodi:type="star"
       style="fill:#ffff02;fill-opacity:1;stroke:none;stroke-width:2.028;stroke-linejoin:bevel;stroke-dasharray:none;stroke-opacity:1;paint-order:stroke fill markers"
       id="path6009"
       inkscape:flatsided="false"
       sodipodi:sides="5"
       sodipodi:cx="9.2365675"
       sodipodi:cy="20.627886"
       sodipodi:r1="2.8786886"
       sodipodi:r2="1.4168506"
       sodipodi:arg1="1.5707963"
       sodipodi:arg2="2.1991148"
       inkscape:rounded="0"
       inkscape:randomized="0"
       d="M 9.2365676,23.506574 8.4037637,21.774142 6.498772,21.51745 7.8890625,20.190055 7.5445167,18.298978 l 1.6920507,0.912057 1.6920506,-0.912057 -0.344546,1.891077 1.390291,1.327394 -1.904992,0.256693 z"
       inkscape:transform-center-y="-0.71824552"
       transform="matrix(0.45017971,0,0,-0.99801899,10.940259,19.483482)"
       inkscape:export-filename="04.png"
       inkscape:export-xdpi="96"
       inkscape:export-ydpi="96" /><path
       sodipodi:type="star"
       style="fill:#ffff02;fill-opacity:1;stroke:none;stroke-width:2.028;stroke-linejoin:bevel;stroke-dasharray:none;stroke-opacity:1;paint-order:stroke fill markers"
       id="path6011"
       inkscape:flatsided="false"
       sodipodi:sides="5"
       sodipodi:cx="9.2365675"
       sodipodi:cy="20.627886"
       sodipodi:r1="2.8786886"
       sodipodi:r2="1.4168506"
       sodipodi:arg1="1.5707963"
       sodipodi:arg2="2.1991148"
       inkscape:rounded="0"
       inkscape:randomized="0"
       d="M 9.2365676,23.506574 8.4037637,21.774142 6.498772,21.51745 7.8890625,20.190055 7.5445167,18.298978 l 1.6920507,0.912057 1.6920506,-0.912057 -0.344546,1.891077 1.390291,1.327394 -1.904992,0.256693 z"
       inkscape:transform-center-y="-0.71824552"
       transform="matrix(0.26755103,0,0,-0.99801899,4.8130379,38.113593)"
       inkscape:export-filename="05.png"
       inkscape:export-xdpi="96"
       inkscape:export-ydpi="96" /><path
       sodipodi:type="star"
       style="fill:#ffff02;fill-opacity:1;stroke:none;stroke-width:2.028;stroke-linejoin:bevel;stroke-dasharray:none;stroke-opacity:1;paint-order:stroke fill markers"
       id="path6013"
       inkscape:flatsided="false"
       sodipodi:sides="5"
       sodipodi:cx="9.2365675"
       sodipodi:cy="20.627886"
       sodipodi:r1="2.8786886"
       sodipodi:r2="1.4168506"
       sodipodi:arg1="1.5707963"
       sodipodi:arg2="2.1991148"
       inkscape:rounded="0"
       inkscape:randomized="0"
       d="M 9.2365676,23.506574 8.4037637,21.774142 6.498772,21.51745 7.8890625,20.190055 7.5445167,18.298978 l 1.6920507,0.912057 1.6920506,-0.912057 -0.344546,1.891077 1.390291,1.327394 -1.904992,0.256693 z"
       inkscape:transform-center-y="-0.71824552"
       transform="matrix(0.08492234,0,0,-0.99801899,1.9937341,23.507201)"
       inkscape:export-filename="06.png"
       inkscape:export-xdpi="96"
       inkscape:export-ydpi="96" /><path
       sodipodi:type="star"
       style="fill:#ffff02;fill-opacity:1;stroke:none;stroke-width:2.028;stroke-linejoin:bevel;stroke-dasharray:none;stroke-opacity:1;paint-order:stroke fill markers"
       id="path7469"
       inkscape:flatsided="false"
       sodipodi:sides="5"
       sodipodi:cx="9.2365675"
       sodipodi:cy="20.627886"
       sodipodi:r1="2.8786886"
       sodipodi:r2="1.4168506"
       sodipodi:arg1="1.5707963"
       sodipodi:arg2="2.1991148"
       inkscape:rounded="0"
       inkscape:randomized="0"
       d="M 9.2365676,23.506574 8.4037637,21.774142 6.498772,21.51745 7.8890625,20.190055 7.5445167,18.298978 l 1.6920507,0.912057 1.6920506,-0.912057 -0.344546,1.891077 1.390291,1.327394 -1.904992,0.256693 z"
       inkscape:transform-center-y="-0.71824552"
       transform="matrix(0.99801899,0,0,-0.99801899,1.6107482,27.897213)"
       inkscape:export-filename="01.png"
       inkscape:export-xdpi="96"
       inkscape:export-ydpi="96" /></g></svg>
